<?xml version="1.0" encoding="iso-8859-1"?>
<!-- Generator: Adobe Illustrator 25.2.3, SVG Export Plug-In . SVG Version: 6.00 Build 0)  -->
<svg version="1.1" id="Layer_1" xmlns="http://www.w3.org/2000/svg" xmlns:xlink="http://www.w3.org/1999/xlink" x="0px" y="0px"
	 viewBox="0 0 342.164 121.101" style="enable-background:new 0 0 342.164 121.101;" xml:space="preserve">
<g>
	<path d="M293.989,39.572v7.788h-5.236c-1.281-1.505-3.171-2.586-5.355-2.958c-0.544-0.105-1.106-0.162-1.684-0.162
		c-0.587,0-1.163,0.059-1.717,0.167c-4.027,0.698-7.062,3.803-7.062,7.532c0,4.242,3.93,7.679,8.779,7.679
		c0.241,0,0.478-0.012,0.714-0.032c2.749-0.194,5.143-1.491,6.591-3.39h4.97v4.305v1.945v2.903h-9.72v-4.848h-5.623v11.254
		l0.008,0.511c0,1.469,1.209,2.66,2.699,2.66l0.42-0.011v0.016h13.706v-0.016h4.134V62.447v-1.945v-20.93H293.989z"/>
	<path d="M234.583,39.653c1.491,0,2.699,1.192,2.699,2.661l-0.004-0.138v11.296h-0.016v1.324h-22.401v-0.808h-0.035V40.474h0.035
		v-0.81h19.56L234.583,39.653z"/>
	<path style="fill:#FFFFFF;" d="M293.989,72.398h-9.72v-4.605h9.72V72.398z M289.764,53.788c0.158-0.591,0.251-1.207,0.251-1.842
		c0-0.745-0.121-1.463-0.333-2.144h4.307v3.986H289.764z"/>
	<path d="M160.402,60.537c-5.075,0-9.185-3.578-9.185-7.994c0-4.415,4.11-7.993,9.185-7.993c5.073,0,9.185,3.578,9.185,7.993
		C169.587,56.96,165.475,60.537,160.402,60.537z"/>
	<path style="fill:#FFFFFF;" d="M160.359,58.626c-2.123,0-3.842-2.724-3.842-6.086c0-3.359,1.719-6.086,3.842-6.086
		c2.123,0,3.842,2.726,3.842,6.086C164.201,55.902,162.482,58.626,160.359,58.626z"/>
	<path style="fill:#FFFFFF;" d="M220.448,52.341V42.118h11.207v10.224H220.448z"/>
	<polygon points="239.063,58.558 212.948,58.558 212.948,61.013 223.191,61.013 223.191,74.973 228.812,74.973 228.812,61.013 
		239.063,61.013 	"/>
	<polygon points="180.777,50.881 177.102,50.881 177.102,39.557 171.479,39.557 171.479,66.719 177.102,66.719 177.102,54.354 
		180.777,54.354 	"/>
	<polygon points="163.33,38.837 157.709,38.837 157.709,41.263 152.243,41.263 152.243,43.604 168.833,43.604 168.833,41.263 
		163.33,41.263 	"/>
	<polygon points="316.197,41.358 316.197,38.775 310.574,38.775 310.574,41.358 305.264,41.358 305.264,43.812 321.591,43.812 
		321.591,41.358 	"/>
	<polygon points="284.452,41.409 284.452,38.775 278.831,38.775 278.831,41.409 273.801,41.409 273.801,43.834 289.363,43.834 
		289.363,41.409 	"/>
	<path d="M158.423,74.939c-1.489,0-2.697-1.191-2.697-2.66v-0.135V61.826h5.621v10.782h15.839v2.341h-18.827v-0.009H158.423z"/>
	<path d="M207.372,42.343c0-1.469-1.207-2.661-2.697-2.661l-0.29-0.02h-18.775v2.454h16.138v10.188h-18.893v2.454h10.258v5.587
		h-7.836v2.426h16.325v12.215h5.621v-14.42h-0.012v-0.222h-8.475v-5.587h11.056v-2.454h-2.425V42.55L207.372,42.343z"/>
	<path style="fill:#FFFFFF;" d="M281.675,57.788c-2.028,0-3.673-2.617-3.673-5.846c0-3.23,1.645-5.847,3.673-5.847
		s3.673,2.618,3.673,5.847C285.348,55.171,283.703,57.788,281.675,57.788z"/>
	<path d="M268.619,39.551h-5.608v4.301h-4.451c-1.705-2.336-4.624-3.878-7.941-3.878c-5.259,0-9.525,3.872-9.525,8.648
		c0,4.776,4.266,8.646,9.525,8.646c3.64,0,6.801-1.856,8.406-4.582h3.986v7.658h-15.862v2.426h15.862v12.185h5.608V39.551z
		 M250.591,55.44c-2.263,0-4.099-3.006-4.099-6.714c0-3.709,1.836-6.716,4.099-6.716c2.265,0,4.101,3.007,4.101,6.716
		C254.692,52.434,252.856,55.44,250.591,55.44z M263.011,50.233h-3.037c0.107-0.522,0.169-1.059,0.169-1.61
		c0-0.804-0.13-1.58-0.354-2.318h3.222V50.233z"/>
	<path d="M324.142,39.573v23.682h-7.931v-3.952c3.436-1.02,5.911-3.847,5.911-7.186c0-4.196-3.906-7.598-8.724-7.598
		c-4.816,0-8.722,3.402-8.722,7.598c0,3.344,2.485,6.176,5.928,7.192v3.947h-6.082v2.607h19.62v9.081h5.621v-35.37H324.142z
		 M313.398,46.272c1.987,0,3.597,2.616,3.597,5.844c0,3.229-1.61,5.845-3.597,5.845c-1.983,0-3.595-2.616-3.595-5.845
		C309.802,48.888,311.414,46.272,313.398,46.272z"/>
	<polygon style="fill:#009FA0;" points="75.647,115.343 69.472,109.352 138.104,52.052 138.831,52.758 	"/>
	<polygon style="fill:#009DCC;" points="68.02,107.942 61.881,101.912 130.476,44.652 131.204,45.356 	"/>
	<polygon style="fill:#0090D2;" points="60.472,100.463 54.294,94.472 122.849,37.251 123.576,37.957 	"/>
	<polygon style="fill:#0077BE;" points="52.911,93.026 46.734,87.032 115.369,29.734 116.094,30.439 	"/>
	<polygon style="fill:#EE732C;" points="75.467,4.792 81.603,10.823 13.01,68.082 12.283,67.377 	"/>
	<polygon style="fill:#E63027;" points="83.017,12.271 89.194,18.262 20.639,75.484 19.912,74.777 	"/>
	<polygon style="fill:#E6007E;" points="90.604,19.71 96.781,25.702 28.265,82.884 27.539,82.178 	"/>
	<polygon style="fill:#9B338A;" points="98.204,27.11 104.355,33.129 35.747,90.401 35.02,89.696 	"/>
</g>
</svg>
